<svg width="705" height="754" viewBox="0 0 705 754" fill="none" xmlns="http://www.w3.org/2000/svg">
<path d="M549.136 744.066L547.886 746.263C545.489 749.793 541.733 752.118 537.587 752.972L536.831 753.12C530.129 754.517 522.382 753.832 515.519 753.835L190.451 753.846C183.695 753.841 176.463 754.289 169.772 753.364L168.803 753.225C154.876 751.323 154.21 740.433 154.174 729.604L154.01 693.818C153.738 669.448 163.781 659.567 188.007 657.017L187.991 628.53C188 584.366 205.826 560.712 243.509 536.439C272.799 517.573 281.973 509.677 291.001 474.255C250.71 465.641 209.463 446.15 180.705 415.914C175.717 410.67 166.362 394.737 161.829 394.1L154.253 392.849C117.902 385.868 72.8412 363.781 46.4925 338.459C16.9125 310.031 0.751228 268.754 0.113177 227.962L0 97.2244C0.00328047 70.5934 2.9311 62.2236 29.7243 62.1875L126.059 62.0941L126.062 26.8851C126.126 9.03056 128.329 0.77386 147.921 0L549.675 0.0491965C574.428 0.0819872 578.552 2.60194 578.507 30.8249L578.348 61.9219C581.051 62.3843 584.017 62.1547 586.771 62.1564L659.376 62.1138C675.119 62.0908 699.883 57.1558 704.207 78.3533L704.61 80.4536C705.348 85.3656 704.812 91.0745 704.809 96.0701L704.728 193.514C704.686 241.011 704.144 281.183 674.036 321.026C645.409 358.909 589.792 387.31 542.286 393.967L536.475 402.215C511.004 436.593 457.263 467.282 414.018 473.63C422.851 509.89 433.619 518.301 462.22 537.129C487.901 554.036 513.206 577.931 516.31 610.259C517.779 625.568 516.17 641.509 516.889 656.928C552.505 658.232 550.833 682.228 550.786 707.338C550.764 718.731 553.133 733.208 549.136 744.066ZM52.2185 112.47L52.1906 216.755C52.2169 268.226 70.5022 304.407 118.93 328.182C124.307 330.822 129.948 332.935 135.234 335.76C126.331 309.208 125.97 284.5 125.981 256.966L125.939 112.472L52.2185 112.47ZM578.294 112.47L578.486 276.14C578.445 296.428 577.008 316.696 568.787 335.503C585.856 329.223 602.027 320.162 615.55 307.872C634.667 290.214 651.488 264.299 652.571 237.45L652.717 112.49L578.294 112.47ZM359.597 612.815L299.02 612.854C279.747 612.889 272.991 630.832 284.549 641.62C292.159 648.719 302.914 646.337 312.627 646.344L345.128 646.335L391.936 646.35C404.095 646.335 426.336 648.829 425.764 628.935C425.239 610.663 406.963 612.787 394.97 612.784L359.597 612.815Z" fill="#9357F4"/>
</svg>
