<svg width="54" height="48" viewBox="0 0 54 48" fill="none" xmlns="http://www.w3.org/2000/svg">
<path d="M41.6386 48C37.5181 48 34.2651 46.5648 31.8795 43.6944C29.494 40.7176 28.3012 36.5714 28.3012 31.2558C28.3012 24.4518 30.253 18.2326 34.1566 12.598C38.0602 6.96346 44.6747 2.76412 54 0V7.97342C51.2892 9.03655 48.9578 10.206 47.006 11.4817C45.1627 12.6512 43.753 14.0332 42.7771 15.6279C41.9096 17.1163 41.4759 18.9236 41.4759 21.0498C41.4759 22.2193 41.8012 23.1761 42.4518 23.9203C43.2108 24.6645 44.0783 25.3555 45.0542 25.9934C46.1386 26.5249 47.1687 27.2159 48.1446 28.0664C49.2289 28.9169 50.0964 30.0864 50.747 31.5748C51.506 33.0631 51.8855 35.0299 51.8855 37.4751C51.8855 40.8771 50.8554 43.4817 48.7952 45.289C46.8434 47.0963 44.4578 48 41.6386 48ZM13.3373 48C9.21687 48 5.96386 46.5648 3.57831 43.6944C1.19277 40.7176 0 36.5714 0 31.2558C0 24.4518 1.95181 18.2326 5.85542 12.598C9.75904 6.96346 16.3735 2.76412 25.6988 0V7.97342C22.988 9.03655 20.7108 10.206 18.8675 11.4817C17.0241 12.6512 15.6145 14.0332 14.6386 15.6279C13.6626 17.1163 13.1747 18.9236 13.1747 21.0498C13.1747 22.2193 13.5 23.1761 14.1506 23.9203C14.9096 24.6645 15.7771 25.3555 16.753 25.9934C17.8373 26.5249 18.8675 27.2159 19.8434 28.0664C20.9277 28.9169 21.7952 30.0864 22.4458 31.5748C23.2048 33.0631 23.5843 35.0299 23.5843 37.4751C23.5843 40.8771 22.6084 43.4817 20.6566 45.289C18.7048 47.0963 16.2651 48 13.3373 48Z" fill="#D1B7FA" fill-opacity="0.5"/>
</svg>
