<svg width="319" height="72" viewBox="0 0 319 72" fill="none" xmlns="http://www.w3.org/2000/svg">
<path d="M105.27 22.3944C100.908 22.5228 97.0584 23.7426 93.7224 26.0537C90.4505 28.3648 88.141 31.5426 86.7937 35.587V66.787H80.25V16.6167H86.4088V28.6537C88.141 25.1228 90.4184 22.266 93.2412 20.0833C96.1281 17.9006 99.1755 16.6809 102.383 16.4241C103.025 16.3599 103.57 16.3278 104.019 16.3278C104.532 16.3278 104.949 16.3599 105.27 16.4241V22.3944Z" fill="#fafafa"/>
<path d="M134.042 67.75C130.449 67.75 127.113 67.0759 124.034 65.7278C120.954 64.3154 118.292 62.4216 116.046 60.0463C113.801 57.6068 112.037 54.8142 110.754 51.6685C109.535 48.5228 108.925 45.1525 108.925 41.5574C108.925 36.871 109.984 32.5698 112.101 28.6537C114.282 24.7377 117.265 21.6241 121.051 19.313C124.836 16.9377 129.134 15.75 133.945 15.75C138.885 15.75 143.184 16.9377 146.84 19.313C150.561 21.6883 153.48 24.834 155.598 28.75C157.715 32.6019 158.773 36.8389 158.773 41.4611C158.773 41.9747 158.773 42.4883 158.773 43.0019C158.773 43.4512 158.741 43.8043 158.677 44.0611H115.758C116.079 47.6562 117.073 50.866 118.741 53.6907C120.473 56.4512 122.686 58.666 125.381 60.3352C128.14 61.9401 131.123 62.7426 134.33 62.7426C137.602 62.7426 140.682 61.908 143.569 60.2389C146.52 58.5698 148.573 56.387 149.727 53.6907L155.405 55.2315C154.379 57.6068 152.807 59.7574 150.69 61.6833C148.573 63.6093 146.071 65.1179 143.184 66.2093C140.361 67.2364 137.314 67.75 134.042 67.75ZM115.565 39.3426H152.614C152.358 35.6833 151.363 32.4735 149.631 29.713C147.963 26.9525 145.75 24.8019 142.991 23.2611C140.297 21.6562 137.314 20.8537 134.042 20.8537C130.77 20.8537 127.787 21.6562 125.092 23.2611C122.398 24.8019 120.184 26.9846 118.452 29.8093C116.784 32.5698 115.822 35.7475 115.565 39.3426Z" fill="#fafafa"/>
<path d="M185.325 67.75C181.219 67.75 177.402 67.0759 173.873 65.7278C170.345 64.3796 167.297 62.3253 164.731 59.5648L167.426 54.9426C170.248 57.5747 173.071 59.5006 175.894 60.7204C178.781 61.8759 181.828 62.4537 185.036 62.4537C188.949 62.4537 192.125 61.6833 194.563 60.1426C197.001 58.5377 198.22 56.2586 198.22 53.3056C198.22 51.3154 197.61 49.8068 196.391 48.7796C195.236 47.6883 193.536 46.8216 191.291 46.1796C189.11 45.4735 186.479 44.7352 183.4 43.9648C179.936 43.0019 177.017 42.0068 174.643 40.9796C172.333 39.8883 170.569 38.5401 169.35 36.9352C168.196 35.266 167.618 33.1154 167.618 30.4833C167.618 27.2093 168.42 24.513 170.024 22.3944C171.692 20.2117 173.937 18.5747 176.76 17.4833C179.647 16.3278 182.855 15.75 186.383 15.75C190.232 15.75 193.633 16.3599 196.584 17.5796C199.535 18.7994 201.941 20.5006 203.801 22.6833L200.625 27.113C198.829 25.0586 196.68 23.55 194.178 22.587C191.74 21.5599 189.014 21.0463 185.998 21.0463C183.945 21.0463 181.989 21.3352 180.128 21.913C178.268 22.4265 176.728 23.3253 175.509 24.6093C174.354 25.829 173.777 27.5302 173.777 29.713C173.777 31.5105 174.226 32.9228 175.124 33.95C176.022 34.913 177.37 35.7475 179.166 36.4537C180.962 37.0957 183.176 37.8019 185.806 38.5722C189.591 39.5994 192.895 40.6586 195.718 41.75C198.54 42.7772 200.722 44.1253 202.261 45.7944C203.801 47.4636 204.571 49.8068 204.571 52.8241C204.571 57.5105 202.807 61.1698 199.278 63.8019C195.75 66.4339 191.099 67.75 185.325 67.75Z" fill="#fafafa"/>
<path d="M237.039 67.75C233.447 67.75 230.11 67.0759 227.031 65.7278C223.952 64.3154 221.289 62.4216 219.044 60.0463C216.799 57.6068 215.034 54.8142 213.751 51.6685C212.532 48.5228 211.923 45.1525 211.923 41.5574C211.923 36.871 212.981 32.5698 215.098 28.6537C217.28 24.7377 220.263 21.6241 224.048 19.313C227.833 16.9377 232.131 15.75 236.943 15.75C241.883 15.75 246.181 16.9377 249.838 19.313C253.559 21.6883 256.478 24.834 258.595 28.75C260.712 32.6019 261.771 36.8389 261.771 41.4611C261.771 41.9747 261.771 42.4883 261.771 43.0019C261.771 43.4512 261.738 43.8043 261.674 44.0611H218.755C219.076 47.6562 220.07 50.866 221.738 53.6907C223.471 56.4512 225.684 58.666 228.378 60.3352C231.137 61.9401 234.12 62.7426 237.328 62.7426C240.6 62.7426 243.679 61.908 246.566 60.2389C249.517 58.5698 251.57 56.387 252.725 53.6907L258.402 55.2315C257.376 57.6068 255.804 59.7574 253.687 61.6833C251.57 63.6093 249.068 65.1179 246.181 66.2093C243.358 67.2364 240.311 67.75 237.039 67.75ZM218.563 39.3426H255.612C255.355 35.6833 254.361 32.4735 252.629 29.713C250.961 26.9525 248.747 24.8019 245.989 23.2611C243.294 21.6562 240.311 20.8537 237.039 20.8537C233.767 20.8537 230.784 21.6562 228.09 23.2611C225.395 24.8019 223.182 26.9846 221.45 29.8093C219.782 32.5698 218.819 35.7475 218.563 39.3426Z" fill="#fafafa"/>
<path d="M293.519 67.75C289.926 67.75 286.59 67.0759 283.511 65.7278C280.431 64.3154 277.769 62.4216 275.523 60.0463C273.278 57.6068 271.514 54.8142 270.231 51.6685C269.012 48.5228 268.402 45.1525 268.402 41.5574C268.402 36.871 269.461 32.5698 271.578 28.6537C273.759 24.7377 276.742 21.6241 280.527 19.313C284.312 16.9377 288.611 15.75 293.422 15.75C298.362 15.75 302.661 16.9377 306.317 19.313C310.038 21.6883 312.957 24.834 315.074 28.75C317.191 32.6019 318.25 36.8389 318.25 41.4611C318.25 41.9747 318.25 42.4883 318.25 43.0019C318.25 43.4512 318.218 43.8043 318.154 44.0611H275.235C275.555 47.6562 276.55 50.866 278.218 53.6907C279.95 56.4512 282.163 58.666 284.858 60.3352C287.616 61.9401 290.6 62.7426 293.807 62.7426C297.079 62.7426 300.159 61.908 303.045 60.2389C305.997 58.5698 308.049 56.387 309.204 53.6907L314.882 55.2315C313.855 57.6068 312.284 59.7574 310.167 61.6833C308.049 63.6093 305.547 65.1179 302.661 66.2093C299.838 67.2364 296.79 67.75 293.519 67.75ZM275.042 39.3426H312.091C311.835 35.6833 310.84 32.4735 309.108 29.713C307.44 26.9525 305.227 24.8019 302.468 23.2611C299.774 21.6562 296.79 20.8537 293.519 20.8537C290.247 20.8537 287.264 21.6562 284.569 23.2611C281.875 24.8019 279.661 26.9846 277.929 29.8093C276.261 32.5698 275.299 35.7475 275.042 39.3426Z" fill="#fafafa"/>
<path d="M35.75 2V17C35.75 17.9946 36.1451 18.9484 36.8484 19.6516C37.5516 20.3549 38.5054 20.75 39.5 20.75H54.5" stroke="#fafafa" stroke-width="3.5" stroke-linecap="round" stroke-linejoin="round"/>
<path d="M47 69.5H9.5C7.51088 69.5 5.60322 68.7098 4.1967 67.3033C2.79018 65.8968 2 63.9891 2 62V9.5C2 7.51088 2.79018 5.60322 4.1967 4.1967C5.60322 2.79018 7.51088 2 9.5 2H35.75L54.5 20.75V62C54.5 63.9891 53.7098 65.8968 52.3033 67.3033C50.8968 68.7098 48.9891 69.5 47 69.5Z" stroke="#fafafa" stroke-width="3.5" stroke-linecap="round" stroke-linejoin="round"/>
<path d="M17 24.5H20.75" stroke="#fafafa" stroke-width="3.5" stroke-linecap="round" stroke-linejoin="round"/>
<path d="M17 39.5H39.5" stroke="#fafafa" stroke-width="3.5" stroke-linecap="round" stroke-linejoin="round"/>
<path d="M17 54.5H39.5" stroke="#fafafa" stroke-width="3.5" stroke-linecap="round" stroke-linejoin="round"/>
</svg>
