<?xml version="1.0" encoding="UTF-8"?>
<svg id="Warstwa_1" data-name="Warstwa 1" xmlns="http://www.w3.org/2000/svg" viewBox="0 0 494.36 503.18">
  <defs>
    <style>
      .cls-1 {
        fill: #9357f4;
      }

      .cls-2 {
        fill: none;
      }
    </style>
  </defs>
  <path class="cls-2" d="M0,0H494.36V494.36H0V0Z"/>
  <path class="cls-1" d="M247.18,24.2c66.27,0,119.99,53.72,119.99,119.99s-53.72,119.99-119.99,119.99-119.99-53.72-119.99-119.99l.12-5.21c2.79-64.18,55.63-114.78,119.87-114.78Z"/>
  <path class="cls-1" d="M311.47,288.38c88.76,0,160.71,53.92,160.71,120.43v24.09c0,26.61-28.78,48.17-64.29,48.17H86.47c-35.5,0-64.29-21.57-64.29-48.17v-24.09c0-66.51,71.95-120.43,160.71-120.43h128.57Z"/>
  <polygon class="cls-1" points="22.18 489.65 22.18 432.9 472.18 432.9 472.18 503.18 22.18 503.18 22.18 489.65"/>
</svg>